<?xml version="1.0" encoding="iso-8859-1"?>
<!-- Generator: Adobe Illustrator 19.0.0, SVG Export Plug-In . SVG Version: 6.00 Build 0)  -->
<svg version="1.1" id="Capa_1" xmlns="http://www.w3.org/2000/svg" xmlns:xlink="http://www.w3.org/1999/xlink" x="0px" y="0px"
	 viewBox="0 0 512 512" style="enable-background:new 0 0 512 512;" xml:space="preserve">
<g>
	<path style="fill:#DDD8D5;" d="M157.446,91.515l-25.931-40.393c-2.386-3.717-7.335-4.795-11.054-2.41L93.533,65.999
		c-1.786,1.146-3.042,2.955-3.495,5.028c-0.452,2.072-0.062,4.24,1.084,6.026l25.931,40.393c1.528,2.38,4.106,3.679,6.739,3.679
		c1.48,0,2.977-0.41,4.314-1.269l26.929-17.287c1.786-1.146,3.042-2.955,3.495-5.028C158.982,95.469,158.592,93.301,157.446,91.515z
		"/>
	<path style="fill:#DDD8D5;" d="M421.962,71.027c-0.452-2.073-1.709-3.882-3.495-5.028l-26.929-17.287
		c-3.718-2.386-8.667-1.308-11.054,2.41l-25.931,40.393c-1.146,1.786-1.537,3.954-1.084,6.026c0.452,2.073,1.709,3.882,3.495,5.028
		l26.929,17.287c1.338,0.858,2.834,1.269,4.314,1.269c2.633,0,5.211-1.299,6.739-3.679l25.931-40.393
		C422.024,75.268,422.414,73.1,421.962,71.027z"/>
</g>
<g>
	<path style="fill:#EEA848;" d="M304,31.5h-16c-4.142,0-7.5-3.357-7.5-7.5s3.358-7.5,7.5-7.5h16c4.142,0,7.5,3.357,7.5,7.5
		S308.142,31.5,304,31.5z"/>
	<path style="fill:#EEA848;" d="M224,31.5h-16c-4.142,0-7.5-3.357-7.5-7.5s3.358-7.5,7.5-7.5h16c4.142,0,7.5,3.357,7.5,7.5
		S228.142,31.5,224,31.5z"/>
</g>
<path style="fill:#FDC572;" d="M288,0h-64c-4.418,0-8,3.582-8,8v48c0,4.418,3.582,8,8,8h64c4.418,0,8-3.582,8-8V8
	C296,3.582,292.418,0,288,0z"/>
<path style="fill:#FCB74F;" d="M280,50c-12-6-24-12-32-23c-6.623-8.831-12.02-17.665-16.039-27H224c-4.418,0-8,3.582-8,8v48
	c0,4.418,3.582,8,8,8h64c4.418,0,8-3.582,8-8v-4.137C290.336,51.21,284.722,52.833,280,50z"/>
<path style="fill:#75E0F1;" d="M420.049,115.951C376.23,72.132,317.97,48,256,48S135.77,72.132,91.951,115.951S24,218.03,24,280
	s24.132,120.229,67.951,164.049S194.03,512,256,512s120.23-24.132,164.049-67.951S488,341.97,488,280
	S463.868,159.771,420.049,115.951z"/>
<path id="SVGCleanerId_0" style="fill:#F6F5F5;" d="M256,80C145.72,80,56,169.72,56,280s89.72,200,200,200s200-89.72,200-200
	S366.28,80,256,80z"/>
<g>
	<path id="SVGCleanerId_0_1_" style="fill:#F6F5F5;" d="M256,80C145.72,80,56,169.72,56,280s89.72,200,200,200s200-89.72,200-200
		S366.28,80,256,80z"/>
</g>
<g>
	<path style="fill:#988981;" d="M176.007,148.937c-2.592,0-5.113-1.345-6.502-3.751l-16-27.713
		c-2.071-3.587-0.842-8.174,2.745-10.245c3.588-2.07,8.174-0.843,10.245,2.745l16,27.713
		C185.322,142.582,181.695,148.937,176.007,148.937z"/>
	<path style="fill:#988981;" d="M117.429,207.501c-1.272,0-2.562-0.324-3.743-1.006l-27.713-16
		c-3.587-2.071-4.816-6.658-2.745-10.245c2.071-3.588,6.658-4.815,10.245-2.745l27.713,16c2.79,1.611,4.263,4.93,3.582,8.08
		C124.029,204.999,120.921,207.501,117.429,207.501z"/>
	<path style="fill:#988981;" d="M96,287.5H64c-4.142,0-7.5-3.357-7.5-7.5s3.358-7.5,7.5-7.5h32c4.142,0,7.5,3.357,7.5,7.5
		S100.142,287.5,96,287.5z"/>
	<path style="fill:#988981;" d="M89.73,383.501c-2.592,0-5.113-1.345-6.502-3.751c-2.071-3.587-0.842-8.174,2.745-10.245l27.713-16
		c3.587-2.069,8.174-0.843,10.245,2.745c2.071,3.587,0.842,8.174-2.745,10.245l-27.713,16
		C92.292,383.177,91.002,383.501,89.73,383.501z"/>
	<path style="fill:#988981;" d="M159.993,453.778c-1.272,0-2.562-0.324-3.743-1.006c-3.587-2.071-4.816-6.658-2.745-10.245
		l16-27.713c2.071-3.588,6.658-4.815,10.245-2.745c3.587,2.071,4.816,6.658,2.745,10.245l-16,27.713
		C165.106,452.434,162.585,453.778,159.993,453.778z"/>
	<path style="fill:#988981;" d="M256,479.5c-4.142,0-7.5-3.357-7.5-7.5v-32c0-4.143,3.358-7.5,7.5-7.5s7.5,3.357,7.5,7.5v32
		C263.5,476.143,260.142,479.5,256,479.5z"/>
	<path style="fill:#988981;" d="M352.007,453.778c-2.592,0-5.113-1.345-6.502-3.751l-16-27.713
		c-2.071-3.587-0.842-8.174,2.745-10.245c3.586-2.069,8.174-0.843,10.245,2.745l16,27.713c2.071,3.587,0.842,8.174-2.745,10.245
		C354.569,453.454,353.279,453.778,352.007,453.778z"/>
	<path style="fill:#988981;" d="M422.27,383.501c-1.272,0-2.562-0.324-3.743-1.006l-27.713-16
		c-3.587-2.071-4.816-6.658-2.745-10.245c2.071-3.588,6.657-4.815,10.245-2.745l27.713,16c3.587,2.071,4.816,6.658,2.745,10.245
		C427.383,382.156,424.862,383.501,422.27,383.501z"/>
</g>
<path style="fill:#E5E1E0;" d="M256,80C145.72,80,56,169.72,56,280s89.72,200,200,200s200-89.72,200-200S366.28,80,256,80z M256,456
	c-97.047,0-176-78.953-176-176s78.953-176,176-176s176,78.953,176,176S353.047,456,256,456z"/>
<path style="fill:#EE6482;" d="M456,280c0-110.28-89.72-200-200-200v200H456z"/>
<path style="fill:#F1839B;" d="M256,104v176h176C432,182.953,353.047,104,256,104z"/>
<path style="fill:#FFFFFF;" d="M332,184.5h-8c-6.893,0-12.5-5.607-12.5-12.5s5.607-12.5,12.5-12.5h28c4.142,0,7.5-3.357,7.5-7.5
	s-3.358-7.5-7.5-7.5h-16.5V136c0-4.143-3.358-7.5-7.5-7.5s-7.5,3.357-7.5,7.5v8.73c-13.516,1.726-24,13.293-24,27.27
	c0,15.163,12.336,27.5,27.5,27.5h8c6.893,0,12.5,5.607,12.5,12.5s-5.607,12.5-12.5,12.5h-28c-4.142,0-7.5,3.357-7.5,7.5
	s3.358,7.5,7.5,7.5h16.5v8.5c0,4.143,3.358,7.5,7.5,7.5s7.5-3.357,7.5-7.5v-8.73c13.516-1.726,24-13.293,24-27.27
	C359.5,196.837,347.164,184.5,332,184.5z"/>
<circle style="fill:#BBB0AB;" cx="256" cy="280" r="24"/>
<g>
</g>
<g>
</g>
<g>
</g>
<g>
</g>
<g>
</g>
<g>
</g>
<g>
</g>
<g>
</g>
<g>
</g>
<g>
</g>
<g>
</g>
<g>
</g>
<g>
</g>
<g>
</g>
<g>
</g>
</svg>
